<svg xmlns="http://www.w3.org/2000/svg" xmlns:xlink="http://www.w3.org/1999/xlink" width="500" zoomAndPan="magnify" viewBox="0 0 375 374.999991" height="500" preserveAspectRatio="xMidYMid meet" version="1.0"><defs><g/></defs><path fill="#2563eb" d="M 171.628906 31.457031 C 76.914062 31.457031 -0.140625 108.511719 -0.140625 203.226562 C -0.140625 297.9375 76.914062 374.996094 171.628906 374.996094 C 266.339844 374.996094 343.398438 297.9375 343.398438 203.226562 C 343.398438 108.511719 266.339844 31.457031 171.628906 31.457031 Z M 171.628906 337.332031 C 97.683594 337.332031 37.523438 277.171875 37.523438 203.226562 C 37.523438 129.28125 97.683594 69.121094 171.628906 69.121094 C 245.574219 69.121094 305.734375 129.28125 305.734375 203.226562 C 305.734375 277.171875 245.574219 337.332031 171.628906 337.332031 Z M 171.628906 337.332031 " fill-opacity="1" fill-rule="nonzero"/><path fill="#2563eb" d="M 171.628906 114.425781 C 169.515625 114.425781 167.4375 114.597656 165.359375 114.742188 C 175.566406 122.742188 182.152344 135.15625 182.152344 149.132812 C 182.152344 173.273438 162.585938 192.84375 138.441406 192.84375 C 117.195312 192.84375 99.5 177.675781 95.570312 157.574219 C 87.535156 170.929688 82.828125 186.511719 82.828125 203.226562 C 82.828125 252.265625 122.585938 292.027344 171.628906 292.027344 C 220.667969 292.027344 260.429688 252.265625 260.429688 203.226562 C 260.429688 154.1875 220.667969 114.425781 171.628906 114.425781 Z M 171.628906 114.425781 " fill-opacity="1" fill-rule="nonzero"/><path fill="#2563eb" d="M 374.726562 37.101562 C 374.726562 38.289062 374.667969 39.476562 374.550781 40.660156 C 374.433594 41.84375 374.261719 43.015625 374.027344 44.183594 C 373.796875 45.347656 373.507812 46.5 373.164062 47.636719 C 372.816406 48.773438 372.417969 49.894531 371.960938 50.992188 C 371.507812 52.089844 371 53.164062 370.441406 54.210938 C 369.878906 55.257812 369.269531 56.277344 368.609375 57.265625 C 367.949219 58.253906 367.242188 59.207031 366.488281 60.128906 C 365.734375 61.046875 364.933594 61.925781 364.09375 62.765625 C 363.253906 63.605469 362.375 64.402344 361.457031 65.15625 C 360.535156 65.914062 359.582031 66.621094 358.59375 67.28125 C 357.605469 67.941406 356.589844 68.550781 355.539062 69.109375 C 354.492188 69.671875 353.417969 70.179688 352.320312 70.632812 C 351.222656 71.089844 350.105469 71.488281 348.964844 71.832031 C 347.828125 72.179688 346.675781 72.46875 345.511719 72.699219 C 344.34375 72.929688 343.171875 73.105469 341.988281 73.222656 C 340.804688 73.339844 339.621094 73.398438 338.429688 73.398438 C 337.242188 73.398438 336.054688 73.339844 334.875 73.222656 C 333.691406 73.105469 332.515625 72.929688 331.351562 72.699219 C 330.183594 72.46875 329.03125 72.179688 327.894531 71.832031 C 326.757812 71.488281 325.640625 71.089844 324.542969 70.632812 C 323.441406 70.179688 322.371094 69.671875 321.320312 69.109375 C 320.273438 68.550781 319.253906 67.941406 318.265625 67.28125 C 317.277344 66.621094 316.324219 65.914062 315.40625 65.15625 C 314.488281 64.402344 313.605469 63.605469 312.765625 62.765625 C 311.925781 61.925781 311.128906 61.046875 310.375 60.128906 C 309.621094 59.207031 308.914062 58.253906 308.253906 57.265625 C 307.59375 56.277344 306.980469 55.257812 306.421875 54.210938 C 305.859375 53.164062 305.355469 52.089844 304.898438 50.992188 C 304.445312 49.894531 304.042969 48.773438 303.699219 47.636719 C 303.355469 46.5 303.066406 45.347656 302.832031 44.183594 C 302.601562 43.015625 302.425781 41.84375 302.3125 40.660156 C 302.195312 39.476562 302.136719 38.289062 302.136719 37.101562 C 302.136719 35.914062 302.195312 34.726562 302.3125 33.542969 C 302.425781 32.363281 302.601562 31.1875 302.832031 30.019531 C 303.066406 28.855469 303.355469 27.703125 303.699219 26.566406 C 304.042969 25.429688 304.445312 24.3125 304.898438 23.210938 C 305.355469 22.113281 305.859375 21.039062 306.421875 19.992188 C 306.980469 18.945312 307.59375 17.925781 308.253906 16.9375 C 308.914062 15.949219 309.621094 14.996094 310.375 14.078125 C 311.128906 13.15625 311.925781 12.277344 312.765625 11.4375 C 313.605469 10.597656 314.488281 9.800781 315.40625 9.046875 C 316.324219 8.292969 317.277344 7.585938 318.265625 6.921875 C 319.253906 6.261719 320.273438 5.652344 321.320312 5.09375 C 322.371094 4.53125 323.441406 4.023438 324.542969 3.570312 C 325.640625 3.113281 326.757812 2.714844 327.894531 2.371094 C 329.03125 2.023438 330.183594 1.734375 331.351562 1.503906 C 332.515625 1.273438 333.691406 1.097656 334.875 0.980469 C 336.054688 0.867188 337.242188 0.808594 338.429688 0.808594 C 339.621094 0.808594 340.804688 0.867188 341.988281 0.980469 C 343.171875 1.097656 344.34375 1.273438 345.511719 1.503906 C 346.675781 1.734375 347.828125 2.023438 348.964844 2.371094 C 350.105469 2.714844 351.222656 3.113281 352.320312 3.570312 C 353.417969 4.023438 354.492188 4.53125 355.539062 5.09375 C 356.589844 5.652344 357.605469 6.261719 358.59375 6.921875 C 359.582031 7.585938 360.535156 8.292969 361.457031 9.046875 C 362.375 9.800781 363.253906 10.597656 364.09375 11.4375 C 364.933594 12.277344 365.734375 13.15625 366.488281 14.078125 C 367.242188 14.996094 367.949219 15.949219 368.609375 16.9375 C 369.269531 17.925781 369.878906 18.945312 370.441406 19.992188 C 371 21.039062 371.507812 22.113281 371.960938 23.210938 C 372.417969 24.3125 372.816406 25.429688 373.164062 26.566406 C 373.507812 27.703125 373.796875 28.855469 374.027344 30.019531 C 374.261719 31.1875 374.433594 32.363281 374.550781 33.542969 C 374.667969 34.726562 374.726562 35.914062 374.726562 37.101562 Z M 374.726562 37.101562 " fill-opacity="1" fill-rule="nonzero"/><g fill="#2563eb" fill-opacity="1"><g transform="translate(179.054659, 274.938419)"><g><path d="M 4.875 -1.546875 L 1.578125 -1.546875 L 0.90625 0 L -0.015625 0 L 2.796875 -6.203125 L 3.671875 -6.203125 L 6.5 0 L 5.5625 0 Z M 4.578125 -2.265625 L 3.234375 -5.296875 L 1.890625 -2.265625 Z M 4.578125 -2.265625 "/></g></g></g><g fill="#2563eb" fill-opacity="1"><g transform="translate(189.43206, 274.938419)"><g><path d="M 4.875 -1.546875 L 1.578125 -1.546875 L 0.90625 0 L -0.015625 0 L 2.796875 -6.203125 L 3.671875 -6.203125 L 6.5 0 L 5.5625 0 Z M 4.578125 -2.265625 L 3.234375 -5.296875 L 1.890625 -2.265625 Z M 4.578125 -2.265625 "/></g></g></g></svg>